<svg width="400" height="400" viewBox="0 0 400 400" fill="none" xmlns="http://www.w3.org/2000/svg">
<path d="M400 194.109C399.87 191.687 398.895 189.389 397.248 187.623C395.601 185.857 393.387 184.736 391 184.46L366.346 180.431C365.237 180.248 364.217 179.707 363.437 178.89C362.657 178.073 362.16 177.024 362.019 175.898C361.548 172.84 361.058 169.666 360.385 166.657C360.168 165.562 360.295 164.427 360.748 163.409C361.202 162.39 361.959 161.541 362.913 160.978L384.817 148.698C386.992 147.579 388.684 145.692 389.57 143.395C390.457 141.099 390.476 138.554 389.625 136.244L385.827 125.663C384.994 123.345 383.343 121.419 381.191 120.253C379.039 119.087 376.537 118.763 374.163 119.344L349.596 124.197C348.498 124.395 347.365 124.238 346.36 123.749C345.355 123.259 344.529 122.461 344 121.469C342.567 118.761 341.01 116.004 339.385 113.296C338.794 112.331 338.518 111.204 338.594 110.073C338.67 108.941 339.094 107.862 339.808 106.986L356.154 87.9212C357.814 86.1214 358.768 83.7725 358.837 81.314C358.906 78.8555 358.086 76.4558 356.529 74.564L349.394 65.9148C347.842 64.0164 345.648 62.767 343.235 62.4083C340.823 62.0496 338.365 62.6073 336.337 63.9734L314.827 77.0102C313.873 77.587 312.761 77.839 311.655 77.7289C310.548 77.6188 309.506 77.1524 308.683 76.3986C306.308 74.2922 303.875 72.2634 301.596 70.3899C300.722 69.693 300.09 68.7329 299.792 67.6489C299.495 66.5649 299.547 65.4134 299.942 64.3616L308.846 40.6759C309.816 38.4159 309.929 35.8751 309.165 33.5361C308.401 31.1971 306.813 29.2229 304.702 27.9885L295 22.271C292.887 21.0411 290.4 20.6414 288.013 21.1483C285.627 21.6552 283.51 23.0331 282.067 25.0181L266.346 44.9568C265.781 45.8235 264.934 46.4642 263.951 46.7689C262.969 47.0736 261.911 47.0232 260.962 46.6265C260.375 46.3838 255.414 44.3356 251.558 43.0348C250.5 42.6868 249.58 42.0063 248.933 41.0928C248.286 40.1793 247.946 39.0808 247.962 37.9579L248.337 12.6511C248.471 10.18 247.708 7.74433 246.191 5.80023C244.674 3.85612 242.507 2.53688 240.096 2.08955L229.087 0.148095C226.688 -0.270278 224.22 0.204743 222.142 1.48489C220.064 2.76503 218.517 4.76324 217.789 7.1082L209.615 31.1919C209.244 32.261 208.544 33.1819 207.616 33.8196C206.688 34.4573 205.583 34.7781 204.462 34.7351H195.087C193.974 34.7582 192.882 34.4262 191.967 33.7866C191.052 33.1469 190.361 32.2322 189.99 31.1725L181.856 7.22469C181.14 4.86261 179.596 2.8449 177.513 1.54942C175.43 0.253941 172.95 -0.230462 170.539 0.186925L159.51 2.12838C157.114 2.57218 154.959 3.87851 153.446 5.8048C151.932 7.7311 151.162 10.1465 151.279 12.6025L151.664 37.9967C151.671 39.1365 151.314 40.2483 150.645 41.1665C149.977 42.0848 149.032 42.7605 147.952 43.093C145.75 43.957 140.971 45.8014 138.798 46.6168C136.875 47.3157 134.779 46.5488 133.087 44.5782L117.452 25.1637C116.018 23.1666 113.902 21.7753 111.513 21.2575C109.124 20.7396 106.63 21.1317 104.51 22.3583L94.8367 28.0177C92.7024 29.2543 91.0971 31.2448 90.3301 33.6053C89.5632 35.9659 89.6888 38.5295 90.6828 40.8021L99.577 64.4296C99.965 65.4836 100.016 66.6339 99.7228 67.7187C99.4296 68.8035 98.807 69.7682 97.9424 70.4772C95.6059 72.4187 93.2117 74.3601 90.827 76.5151C90.0082 77.263 88.9739 77.7267 87.8753 77.8385C86.7767 77.9503 85.6714 77.7042 84.7213 77.1364L63.4617 63.8472C61.4203 62.5066 58.9645 61.9641 56.555 62.3216C54.1456 62.679 51.9482 63.9118 50.3751 65.7886L43.2694 74.4184C41.691 76.2973 40.8546 78.698 40.9202 81.1608C40.9858 83.6235 41.949 85.9753 43.6251 87.7659L60.0482 106.812C60.777 107.67 61.2127 108.742 61.2906 109.87C61.3686 110.998 61.0846 112.121 60.4809 113.073C58.8367 115.713 57.2694 118.489 55.8463 121.266C55.3139 122.264 54.482 123.067 53.4697 123.559C52.4574 124.051 51.3169 124.206 50.2117 124.003L25.6828 119.217C23.3079 118.639 20.8052 118.963 18.6521 120.129C16.4991 121.295 14.8465 123.22 14.0098 125.537L10.1636 136.098C9.3135 138.411 9.33338 140.959 10.2195 143.258C11.1056 145.557 12.7963 147.448 14.9713 148.572L36.8751 160.852C37.8602 161.401 38.6415 162.258 39.1012 163.295C39.5609 164.332 39.6739 165.491 39.4232 166.599L39.1925 167.831C38.6925 170.54 38.2309 173.102 37.7886 175.83C37.6357 176.942 37.1386 177.976 36.3683 178.785C35.5981 179.594 34.5942 180.136 33.5001 180.334L8.79824 184.363C6.38253 184.662 4.15737 185.839 2.53833 187.674C0.919282 189.508 0.0170623 191.875 0.000163949 194.332V205.573C-0.0139137 208.04 0.879054 210.424 2.50617 212.264C4.13328 214.104 6.37877 215.268 8.80785 215.533L33.5001 219.552C34.6097 219.734 35.631 220.274 36.411 221.091C37.1911 221.908 37.6879 222.959 37.8271 224.085C38.2982 227.152 38.7886 230.317 39.4617 233.326C39.6786 234.421 39.5514 235.556 39.0981 236.574C38.6447 237.593 37.8877 238.442 36.9328 239.005L15.0386 251.304C12.8636 252.423 11.1721 254.311 10.2856 256.607C9.39915 258.903 9.37969 261.449 10.2309 263.759L14.0771 274.339C14.9119 276.656 16.5627 278.581 18.7141 279.746C20.8656 280.912 23.3669 281.237 25.7405 280.659L50.3078 275.854C51.4065 275.653 52.5401 275.808 53.5456 276.298C54.5512 276.788 55.3768 277.588 55.904 278.582C57.3463 281.3 58.8944 284.047 60.5194 286.755C61.1124 287.719 61.3906 288.847 61.3147 289.979C61.2387 291.111 60.8126 292.19 60.0963 293.065L43.7501 312.12C42.0702 313.906 41.0942 316.25 41.0056 318.712C40.9171 321.173 41.7221 323.583 43.2694 325.487L50.3944 334.136C51.9452 336.036 54.14 337.287 56.5528 337.646C58.9656 338.005 61.4244 337.446 63.4521 336.078L84.9617 323.041C85.9153 322.464 87.0274 322.212 88.1338 322.322C89.2402 322.432 90.2822 322.899 91.1059 323.652C93.4905 325.759 95.9136 327.788 98.1924 329.661C99.0663 330.359 99.6983 331.318 99.9972 332.402C100.296 333.485 100.247 334.636 99.8559 335.689L90.9424 359.375C89.9728 361.635 89.8592 364.176 90.6232 366.515C91.3872 368.854 92.9756 370.828 95.0867 372.062L104.808 377.732C106.919 378.962 109.406 379.364 111.792 378.859C114.179 378.353 116.297 376.977 117.74 374.994L133.654 355.24C135 353.56 137.115 352.813 138.683 353.454C142.029 354.851 144.269 355.638 148.24 356.977C149.298 357.326 150.218 358.007 150.867 358.92C151.515 359.833 151.858 360.931 151.846 362.054L151.462 387.342C151.332 389.812 152.096 392.245 153.612 394.189C155.129 396.132 157.293 397.452 159.702 397.903L170.712 399.845C173.111 400.267 175.58 399.794 177.659 398.513C179.738 397.233 181.285 395.232 182.01 392.885L190.183 368.84C190.553 367.77 191.253 366.848 192.181 366.21C193.109 365.572 194.215 365.252 195.337 365.297H204.712C205.825 365.272 206.917 365.603 207.832 366.243C208.747 366.883 209.439 367.799 209.808 368.859L217.952 392.807C218.583 394.886 219.857 396.706 221.587 398.001C223.318 399.295 225.414 399.996 227.567 400C228.141 400.001 228.714 399.949 229.279 399.845L240.308 397.903C242.703 397.459 244.858 396.153 246.372 394.227C247.885 392.3 248.655 389.885 248.539 387.429L248.154 362.035C248.146 360.916 248.492 359.824 249.14 358.916C249.788 358.009 250.706 357.333 251.76 356.987C255.452 355.735 258.048 354.725 260.327 353.832L260.904 353.609C263.885 352.57 265.327 353.832 266.164 354.881L282.269 374.907C283.713 376.888 285.829 378.262 288.213 378.767C290.597 379.272 293.082 378.872 295.192 377.644L304.875 371.985C306.993 370.75 308.586 368.77 309.351 366.425C310.115 364.079 309.997 361.532 309.019 359.268L300.135 335.641C299.743 334.588 299.689 333.438 299.98 332.352C300.272 331.267 300.894 330.302 301.76 329.593C304.096 327.652 306.49 325.71 308.875 323.555C309.699 322.805 310.74 322.342 311.844 322.234C312.948 322.125 314.058 322.378 315.01 322.953L336.538 335.961C338.579 337.304 341.036 337.848 343.446 337.49C345.856 337.132 348.053 335.898 349.625 334.02L356.74 325.38C358.319 323.501 359.155 321.101 359.09 318.638C359.024 316.175 358.061 313.823 356.385 312.033L339.981 292.939C339.252 292.08 338.816 291.008 338.738 289.88C338.66 288.753 338.944 287.629 339.548 286.677C341.192 284.047 342.76 281.27 344.183 278.484C344.717 277.488 345.55 276.687 346.561 276.195C347.573 275.704 348.712 275.547 349.817 275.747L374.317 280.572C376.692 281.15 379.195 280.826 381.348 279.66C383.501 278.494 385.154 276.569 385.99 274.252L389.788 263.691C390.638 261.379 390.618 258.833 389.732 256.536C388.846 254.238 387.155 252.349 384.981 251.226L363.058 238.927C362.086 238.373 361.318 237.518 360.866 236.488C360.414 235.458 360.302 234.309 360.548 233.21L360.779 231.977C361.279 229.269 361.74 226.706 362.183 223.978C362.336 222.867 362.833 221.833 363.603 221.024C364.373 220.215 365.377 219.672 366.471 219.474L391.173 215.455C393.595 215.16 395.827 213.984 397.452 212.147C399.077 210.31 399.982 207.939 400 205.476V194.109ZM128.414 285.357C127.215 287.461 125.54 289.247 123.525 290.57C121.51 291.892 119.212 292.713 116.822 292.965C114.431 293.217 112.016 292.893 109.773 292.02C107.531 291.146 105.526 289.747 103.923 287.939C82.2611 263.759 70.3004 232.297 70.3751 199.694C70.4498 167.091 82.5544 135.686 104.327 111.607C105.938 109.799 107.952 108.404 110.202 107.537C112.452 106.669 114.874 106.353 117.268 106.616C119.663 106.879 121.961 107.712 123.974 109.047C125.987 110.382 127.657 112.181 128.846 114.296L172.74 192.294C174.059 194.62 174.752 197.253 174.752 199.933C174.752 202.613 174.059 205.247 172.74 207.573L128.414 285.357ZM200 331.156C190.85 331.158 181.725 330.182 172.779 328.244C170.448 327.718 168.273 326.646 166.43 325.113C164.586 323.58 163.126 321.631 162.168 319.422C161.21 317.214 160.781 314.809 160.916 312.402C161.05 309.995 161.745 307.653 162.942 305.568L207.173 227.91C208.503 225.57 210.422 223.625 212.735 222.274C215.048 220.922 217.674 220.211 220.346 220.212H308.942C311.329 220.208 313.683 220.772 315.813 221.858C317.943 222.944 319.79 224.521 321.204 226.462C322.618 228.403 323.56 230.652 323.952 233.029C324.344 235.406 324.176 237.842 323.462 240.141C306.644 292.871 257.692 331.156 200 331.156ZM207.221 172.054L163.462 94.26C162.276 92.171 161.593 89.8296 161.47 87.4251C161.346 85.0206 161.784 82.6204 162.749 80.4185C163.714 78.2167 165.179 76.275 167.025 74.7504C168.871 73.2257 171.046 72.1609 173.375 71.6421C182.13 69.7795 191.053 68.8425 200 68.8464C257.692 68.8464 306.644 107.132 323.433 159.891C324.147 162.19 324.315 164.626 323.923 167.003C323.531 169.379 322.59 171.629 321.176 173.57C319.762 175.511 317.915 177.088 315.784 178.174C313.654 179.26 311.3 179.824 308.913 179.82H220.452C217.763 179.825 215.121 179.109 212.796 177.744C210.471 176.38 208.547 174.416 207.221 172.054Z" fill="#828282"/>
</svg>
